<?xml version="1.0" standalone="no"?><!DOCTYPE svg PUBLIC "-//W3C//DTD SVG 1.1//EN" "http://www.w3.org/Graphics/SVG/1.1/DTD/svg11.dtd"><svg t="1585891138337" class="icon" viewBox="0 0 1024 1024" version="1.1" xmlns="http://www.w3.org/2000/svg" p-id="2426" xmlns:xlink="http://www.w3.org/1999/xlink" width="200" height="200"><defs><style type="text/css"></style></defs><path d="M989.866667 197.973333V170.666667c0-10.24-6.826667-17.066667-17.066667-17.066667-112.64 0-273.066667 10.24-354.986667 88.746667-51.2 51.2-58.026667 143.36-37.546666 211.626666 44.373333-54.613333 98.986667-95.573333 163.84-126.293333 10.24-3.413333 17.066667 0 23.893333 6.826667 3.413333 10.24 0 17.066667-6.826667 23.893333-17.066667 6.826667-30.72 17.066667-44.373333 23.893333 0 0-3.413333 0-3.413333 3.413334-122.88 78.506667-184.32 204.8-211.626667 331.093333-37.546667-262.826667-150.186667-372.053333-215.04-423.253333-10.24-3.413333-17.066667-6.826667-20.48-10.24-6.826667-3.413333-10.24-6.826667-17.066667-10.24-6.826667-6.826667-6.826667-17.066667-3.413333-23.893334 6.826667-6.826667 17.066667-10.24 23.893333-3.413333 34.133333 23.893333 102.4 68.266667 163.84 170.666667 34.133333-71.68 30.72-180.906667-27.306666-238.933334-81.92-81.92-238.933333-88.746667-354.986667-88.746666-10.24-3.413333-17.066667 3.413333-17.066667 13.653333v27.306667c0 109.226667 0 235.52 71.68 310.613333 34.133333 34.133333 98.986667 58.026667 167.253334 58.026667 44.373333 0 81.92-10.24 109.226666-23.893334C436.906667 563.2 477.866667 706.56 477.866667 921.6c0 10.24 6.826667 17.066667 17.066666 17.066667s17.066667-6.826667 17.066667-17.066667c0-126.293333 20.48-283.306667 105.813333-399.36l3.413334 3.413333c27.306667 27.306667 71.68 40.96 129.706666 40.96 68.266667 0 133.12-20.48 167.253334-58.026666C989.866667 433.493333 989.866667 307.2 989.866667 197.973333z" fill="" p-id="2427"></path></svg>