<?xml version="1.0" standalone="no"?><!DOCTYPE svg PUBLIC "-//W3C//DTD SVG 1.1//EN" "http://www.w3.org/Graphics/SVG/1.1/DTD/svg11.dtd"><svg t="1585891476843" class="icon" viewBox="0 0 1061 1024" version="1.1" xmlns="http://www.w3.org/2000/svg" p-id="11438" xmlns:xlink="http://www.w3.org/1999/xlink" width="207.2265625" height="200"><defs><style type="text/css"></style></defs><path d="M777.481481 948.148148h151.703704c11.377778 0 18.962963-7.585185 18.962963-18.962963s-7.585185-18.962963-18.962963-18.962963H796.444444v-113.777778h94.814815c11.377778 0 18.962963-7.585185 18.962963-18.962963s-7.585185-18.962963-18.962963-18.962962H796.444444v-113.777778h132.740741c11.377778 0 18.962963-7.585185 18.962963-18.962963s-7.585185-18.962963-18.962963-18.962963h-151.703704c-11.377778 0-18.962963 7.585185-18.962962 18.962963v303.407407c0 11.377778 7.585185 18.962963 18.962962 18.962963z m265.481482-417.185185h-128.948148c0-3.792593 0-3.792593-3.792593-7.585185l-265.481481-417.185185C640.948148 45.511111 591.644444 0 530.962963 0c-64.474074 0-113.777778 49.303704-113.777778 113.777778v11.377778L155.496296 519.585185c-3.792593 3.792593-3.792593 7.585185-3.792592 11.377778H18.962963c-11.377778 0-18.962963 7.585185-18.962963 18.962963v455.111111c0 11.377778 7.585185 18.962963 18.962963 18.962963h1024c11.377778 0 18.962963-7.585185 18.962963-18.962963v-455.111111c0-11.377778-7.585185-18.962963-18.962963-18.962963zM530.962963 37.925926c41.718519 0 75.851852 34.133333 75.851852 75.851852s-34.133333 75.851852-75.851852 75.851852-75.851852-34.133333-75.851852-75.851852 34.133333-75.851852 75.851852-75.851852z m-98.607407 132.740741c18.962963 34.133333 56.888889 56.888889 98.607407 56.888889 45.511111 0 87.22963-26.548148 102.4-64.474075l235.140741 367.881482H193.422222l238.933334-360.296296zM1024 986.074074H37.925926V568.888889h986.074074v417.185185zM204.8 910.222222c-34.133333 0-53.096296-30.340741-53.096296-56.888889 0-11.377778-11.377778-18.962963-18.962963-18.962963-11.377778 0-18.962963 7.585185-18.962963 18.962963 3.792593 53.096296 41.718519 94.814815 91.022222 94.814815C257.896296 948.148148 303.407407 906.42963 303.407407 853.333333c0-49.303704-30.340741-79.644444-91.022222-94.814814h-7.585185c-26.548148-7.585185-53.096296-18.962963-53.096296-56.888889 0-34.133333 22.755556-56.888889 53.096296-56.888889 30.340741 0 56.888889 26.548148 60.681481 56.888889 0 11.377778 11.377778 18.962963 18.962963 18.962963 11.377778 0 18.962963-7.585185 18.962963-18.962963-3.792593-49.303704-49.303704-94.814815-98.607407-94.814815C151.703704 606.814815 113.777778 648.533333 113.777778 701.62963c0 49.303704 26.548148 79.644444 87.229629 94.814814h3.792593c26.548148 7.585185 60.681481 18.962963 60.681481 56.888889 0 30.340741-30.340741 56.888889-60.681481 56.888889z m132.740741 37.925926c11.377778 0 18.962963-3.792593 22.755555-15.17037l30.340741-98.607408h79.644444l26.548149 98.607408c3.792593 11.377778 11.377778 18.962963 22.755555 15.17037s18.962963-11.377778 15.170371-22.755555l-75.851852-303.407408c-3.792593-7.585185-11.377778-15.17037-18.962963-15.17037s-15.17037 7.585185-18.962963 15.17037l-94.814815 303.407408c-3.792593 7.585185 0 18.962963 11.377778 22.755555z m98.607407-254.103704l26.548148 102.4h-56.888889l30.340741-102.4z m151.703704 254.103704h113.777778c11.377778 0 18.962963-7.585185 18.962963-18.962963s-7.585185-18.962963-18.962963-18.962963H606.814815v-284.444444c0-11.377778-7.585185-18.962963-18.962963-18.962963s-18.962963 7.585185-18.962963 18.962963v303.407407c0 11.377778 7.585185 18.962963 18.962963 18.962963z" fill="" p-id="11439"></path></svg>