<?xml version="1.0" standalone="no"?><!DOCTYPE svg PUBLIC "-//W3C//DTD SVG 1.1//EN" "http://www.w3.org/Graphics/SVG/1.1/DTD/svg11.dtd"><svg t="1585891269697" class="icon" viewBox="0 0 1025 1024" version="1.1" xmlns="http://www.w3.org/2000/svg" p-id="6443" xmlns:xlink="http://www.w3.org/1999/xlink" width="200.1953125" height="200"><defs><style type="text/css"></style></defs><path d="M826.496102 458.3424c0-21.61664 17.18272-38.8096 38.79936-38.8096s39.36256 17.18272 39.36256 38.8096v382.48448c0 21.61664-17.73568 39.08608-39.36256 39.08608H158.520422c-21.61664 0-38.8096-17.46944-38.8096-39.08608V458.3424c0-21.61664 17.18272-38.8096 38.8096-38.8096s39.07584 17.18272 39.07584 38.8096v343.40864h61.80864V441.15968c0-13.02528 10.25024-23.83872 23.27552-23.83872H740.838502c13.02528 0 24.1152 10.81344 24.1152 23.83872V801.76128h61.53216V458.3424h0.01024zM306.519142 715.28448h411.32032v-59.32032H306.519142v59.32032z m411.32032 46.55104H306.519142v39.90528h411.32032v-39.90528z m-411.32032-152.9856h411.32032v-59.32032H306.519142v59.32032z m0-105.8816h411.32032V464.9984H306.519142v37.96992zM58.741862 446.14656c-18.29888 10.52672-42.68032 3.88096-53.21728-13.86496-11.08992-18.8416-4.98688-42.9568 13.85472-53.21728L492.231782 98.02752c12.7488-7.4752 28.27264-7.20896 39.91552 0l472.84224 281.04704c18.29888 10.25024 24.39168 34.36544 13.86496 53.21728-11.08992 17.73568-34.9184 24.39168-53.77024 13.86496L512.179302 177.01888 58.741862 446.14656zM531.584102 98.02752h0.5632-0.5632z" p-id="6444"></path></svg>